<svg id="Calque_3" data-name="Calque 3" xmlns="http://www.w3.org/2000/svg" viewBox="0 0 827.06 479"><defs><style>.cls-1,.cls-3{fill:#2677be;}.cls-2,.cls-4{fill:#26b4be;}.cls-3,.cls-4{stroke:#fff;stroke-width:0.5px;}.cls-3,.cls-4,.cls-6{stroke-miterlimit:10;}.cls-5{fill:#fdfdfd;}.cls-6{fill:none;stroke:#2677be;stroke-linecap:round;stroke-width:3px;}</style></defs><polygon class="cls-1" points="362.9 84 580.9 0 375.9 130 362.9 84"/><polygon class="cls-2" points="371.18 94.81 427.18 74.81 381.18 111.81 371.18 94.81"/><path class="cls-1" d="M1080,456c0,91.13-162.07,165-362,165-19.25,0-38.15-.69-56.59-2h3.09C837.09,619,977,554.75,977,475.5S837.09,332,664.5,332c-155.32,0-284.17,52-308.4,120.21C360.51,362.83,520.85,291,718,291,917.93,291,1080,364.87,1080,456Z" transform="translate(-356.1 -142)"/><polygon class="cls-3" points="612.9 310 826.9 189 636.9 349 612.9 310"/><polygon class="cls-4" points="702.18 269.94 606.18 325.94 626.18 348.94 702.18 269.94"/><path class="cls-5" d="M1061.25,539.86h0a3,3,0,0,0-.94-1.44l-57.92-48.75.61-.67s6-15.81-6.13-27.84a2.06,2.06,0,0,1-.29-2.53L1032.63,400a2.07,2.07,0,0,0-3.36-2.41l-45.51,54.88-.07.37C966.62,445.4,957,451,957,451l-.34.19L868.28,376.8a11.1,11.1,0,0,1-3.8-10.39l2.12-12.27a7.15,7.15,0,0,0-6.86-8.35L834,345.13a10,10,0,0,1-6.17-2.34L741.7,270.28a2.08,2.08,0,0,1,.23-3.34l2.34-1.48a2.09,2.09,0,0,0,.93-1.33c.77-3.68,3.28-18.19-2.74-27.48a2.07,2.07,0,0,1,.3-2.62l30-28.6a2.08,2.08,0,0,0-2.62-3.21L733,228l-.42.86A53.25,53.25,0,0,0,709.41,224a2,2,0,0,0-.77.18l-13,5.79a2,2,0,0,1-2.17-.3l-55-46.29-1.1-.58c-1.5-.42-5.22-1.11-8.33,1.22-3.59,2.69-4,4.58-4,4.94v.11l1,27.39a24.64,24.64,0,0,0,.29,3.1l5.73,37a2.07,2.07,0,0,1-1.21,2.21l-29.19,13a2,2,0,0,0-.92.8c-1.81,2.92-9.83,17.1-5.18,32.23a2.08,2.08,0,0,1-.32,1.9l-7.74,10.16a2.07,2.07,0,0,0,1.56,3.33l16.42.68a2.07,2.07,0,0,1,1.26.5c12.59,10.84,28.57,10.81,31.78,10.68a2,2,0,0,0,1-.32l1.1-.69a2.07,2.07,0,0,1,3.15,1.43l6.22,40.16a18,18,0,0,1-10.23,19.07l-99.67,46A77.47,77.47,0,0,0,528.85,444c-13.14,9-44.25,32.37-62.85,64-19.88,33.8-23.95,56.73-26,75.66l-.15.66c-2.6,7.52-8.59,15-10.38,17.08a.86.86,0,0,0,1,1.33C433,601.57,442.64,597,447,597c5,0,37,6,68,5s76.19-7.36,108-17c33-10,50-18,70-32,51.29-35.9,56.76-40.66,75.89-55.12a23.69,23.69,0,0,1,20.17-4L851.85,510l-.63.35a2.07,2.07,0,0,0-1,2.12,60.21,60.21,0,0,0,8.06,21.82l-.06.13S856,545,861,551l.28.34a2.06,2.06,0,0,1,.34,2.1l-6.91,17.28a2.08,2.08,0,0,0,2.63,2.72l17.15-6.18a2.17,2.17,0,0,1,1.26,0c2.39.67,9.91,2.62,13.25,1.79,3.11-.78,14-7.58,18.78-10.58a2.15,2.15,0,0,1,1.13-.32c23.45.38,47-7.17,54.46-18.38a2,2,0,0,1,2.21-.84L970,540l54.79,11,.43,0,26.13,1.31A9.79,9.79,0,0,0,1061.25,539.86Z" transform="translate(-356.1 -142)"/><path class="cls-3" d="M869.32,372.28c-33.86,22.45-68,44.46-102.12,68.86,1.38-4.41,4-6.2,6.38-8,27.81-21.52,56.84-41.36,86-61.06,2.18-1.47,4.82-2.52,6-5.16,1.29.61,2.23-.09,3.19-.8q35.32-25.86,70.66-51.7A63.88,63.88,0,0,1,954,306c-1.1,3.43-3.06,5.13-5,6.83-17.38,15.62-36.7,28.74-55.6,42.39C885.46,361,877.37,366.6,869.32,372.28Z" transform="translate(-356.1 -142)"/><path class="cls-1" d="M572.34,514.9c-.19,10-5.6,16.26-14.13,20.62-10.34,5.28-20.81,9.94-32.58,11.1a24.79,24.79,0,0,1-10.31-1.49c-3.22-1.06-3.1-3.3-.72-5.26q17.17-14.21,34.49-28.24a9,9,0,0,1,7.46-2.17,21.06,21.06,0,0,0,8.93-.42C570.63,507.89,572.75,509.84,572.34,514.9Z" transform="translate(-356.1 -142)"/><path class="cls-3" d="M833.71,338,855,327.79a18,18,0,0,1,3.25-1.34c1.38-.35,3.26-1.27,4.08.37s-.87,2.78-2.15,3.45c-4.75,2.49-9.6,4.79-14.38,7.21-3.57,1.81-7.43,3.06-10.63,5.55-12.59,6-25.22,11.82-37.76,17.86-25.85,12.46-51.76,24.78-77.44,37.56-44.32,22.07-88,45.25-129.29,72.71-13.11,8.73-26.23,17.42-38.7,27A8.62,8.62,0,0,0,549,503c-1.77,5.47-6.75,8.65-10.87,12.12-8.18,6.89-16.92,13.12-25.46,19.58-1.73,1.3-3.44,2.75-5.89,1.22s-2.1-4-1.82-6.28a20.25,20.25,0,0,1,1.51-4.76c4.27-10.6,11.47-19.3,19.47-27.1,7-6.79,16.84-6.85,26-7.82a14.17,14.17,0,0,0,7.39-2.54c27.63-20.2,56.66-38.21,86.42-55.13,34.45-19.59,70.1-36.89,105.64-54.39,24.1-11.87,48.36-23.4,72.52-35.14Z" transform="translate(-356.1 -142)"/><path class="cls-1" d="M777.6,506c-1.28,7.31-2,14.39-.69,21.55a33.2,33.2,0,0,0,4.14,11.31c.86,1.41,1.08,2.42-1,2.7-10.67,1.42-18.4,7.71-25.49,15.09-.59.62-.89,1.67-2.35,1.42.85-6.53,1.8-13,.7-19.65a35.72,35.72,0,0,0-4.29-12.49c-.65-1.12-1.29-2.21.71-2.5,11.69-1.65,19.91-8.75,27.32-17.12C776.74,506.23,776.9,506.22,777.6,506Z" transform="translate(-356.1 -142)"/><path class="cls-1" d="M828.93,514.88c1.79,7.39,4,14.35,8.2,20.53a34.11,34.11,0,0,0,8.55,8.93c1.39,1,2,1.84.19,2.93C836.38,553,831.66,562,828,571.82c-.31.81-.16,1.93-1.64,2.28-1.88-6.47-3.65-13-7.41-18.74a36.87,36.87,0,0,0-9.18-10c-1.07-.79-2.13-1.55-.36-2.63,10.36-6.31,15.2-16.32,18.76-27.2C828.21,515.45,828.36,515.38,828.93,514.88Z" transform="translate(-356.1 -142)"/><path class="cls-1" d="M797.83,548.78c.86,6.75,2.12,13.17,5.17,19.13a31.46,31.46,0,0,0,6.52,8.91c1.1,1,1.56,1.85-.11,2.61-8.63,4-13.49,11.45-17.51,19.73-.33.69-.3,1.69-1.61,1.84-1-6-2-11.93-4.65-17.47a34.2,34.2,0,0,0-7-9.9c-.85-.82-1.69-1.62-.07-2.38,9.44-4.41,14.48-12.73,18.51-22C797.16,549.19,797.29,549.15,797.83,548.78Z" transform="translate(-356.1 -142)"/><path class="cls-1" d="M602.78,278.43c2.44-1.54,5.34-2,8.12-2.48a23.61,23.61,0,0,1,7.17-.19,20.6,20.6,0,0,1,12.81,6.64,41.44,41.44,0,0,1,8.46,13.35,24.36,24.36,0,0,1,1.06,13.91,39.57,39.57,0,0,1-6.2,15.08c-1.1,1.59,1.5,3.09,2.6,1.52a41.86,41.86,0,0,0,6.26-14.68,28,28,0,0,0-.43-15.56,44.87,44.87,0,0,0-8.87-14.9,23.7,23.7,0,0,0-13.56-8,27.38,27.38,0,0,0-9.12-.2c-3.33.51-6.92,1.13-9.81,3-1.63,1-.13,3.63,1.51,2.59Z" transform="translate(-356.1 -142)"/><path class="cls-1" d="M861,534.66c2.31-3,6.15-4,9.79-4.31a33.31,33.31,0,0,1,12.3,1.51c7.76,2.43,14.67,7.92,17.31,15.8a20.19,20.19,0,0,1,.09,12.94c-.62,1.84,2.28,2.62,2.89.8,2.9-8.65,0-18.3-6.34-24.67-6.51-6.55-16.19-9.76-25.33-9.43-4.63.18-9.85,1.39-12.84,5.24a1.56,1.56,0,0,0,0,2.12,1.51,1.51,0,0,0,2.13,0Z" transform="translate(-356.1 -142)"/><path class="cls-6" d="M881.5,522.5s9.13.81,15,5a42.58,42.58,0,0,1,11,12" transform="translate(-356.1 -142)"/><path class="cls-6" d="M634.22,272.47s4.07.16,9.55,8.41c7.73,11.62,4.73,14.62,4.73,14.62" transform="translate(-356.1 -142)"/></svg>